<svg id="Layer_1" data-name="Layer 1" xmlns="http://www.w3.org/2000/svg" viewBox="0 0 1253.29 459.6"><defs><style>.cls-1{fill:#010101;}.cls-2,.cls-3{fill:#298fce;}.cls-3{font-size:253.57px;font-family:TitilliumWeb-Regular, Titillium Web;}.cls-4{letter-spacing:-0.01em;}.cls-5,.cls-6{fill:#1d1d1b;}.cls-6{letter-spacing:-0.01em;}</style></defs><path class="cls-1" d="M915.15,433c-18.57,4.62-34.28,14.32-48.58,26.78-7.32,6.37-14.15,13.29-21.89,19.2-9.62,7.34-20.48,12.19-31.94,15.76a112.18,112.18,0,0,1-20.86,4,109.86,109.86,0,0,1-19,.34A102.22,102.22,0,0,1,741.05,492a105.68,105.68,0,0,1-23.94-12.83,114.87,114.87,0,0,1-19.07-17,113.58,113.58,0,0,1-18-27.59,104,104,0,0,1-7.62-23.25,144.36,144.36,0,0,1-2.21-17.58c-.75-10.36.56-20.43,2.8-30.51,1.53-6.86,4.1-13.28,6.67-19.77,3.57-9.05,8.89-17,14.86-24.49a113.75,113.75,0,0,1,38.6-30.4c8.66-4,17.53-7.22,27-8.76,7.5-1.21,15-2.45,22.61-2.14a144.79,144.79,0,0,1,21,2.57,107.4,107.4,0,0,1,29.73,10.78,89.52,89.52,0,0,1,19.38,13.44,8.24,8.24,0,0,1,.9.87c2.16,2.65,1.6,5.56-1.46,7.12a2.72,2.72,0,0,1-3.2-.55c-7.62-6.45-15.67-12.31-24.87-16.33a111.38,111.38,0,0,0-22.87-7.43A104,104,0,0,0,775,286.12a110.08,110.08,0,0,0-17.13,2.59,103.71,103.71,0,0,0-26.65,10.1,100.87,100.87,0,0,0-16,11c-10,8-17.63,17.94-24.11,28.8-2.88,4.81-4.78,10.16-6.86,15.4-2.43,6.09-3.63,12.45-4.81,18.81a62,62,0,0,0-.77,6.62,79.86,79.86,0,0,0-.49,12.16,164,164,0,0,0,2.5,19.22c2,10.2,6.18,19.58,11,28.62a100.46,100.46,0,0,0,11.39,16c7.16,8.66,15.91,15.38,25.34,21.29,5.14,3.22,10.77,5.54,16.36,7.87a90.66,90.66,0,0,0,18,4.95c3.83.72,7.78,1.58,11.75,1.22,1.8-.17,3.38.73,5.17.61a174,174,0,0,0,23.16-2.77c10.31-2.09,19.75-6.26,29.09-10.72,8.35-4,15.54-9.76,22.42-15.91,8.25-7.38,16.56-14.71,25.86-20.76a129.26,129.26,0,0,1,19.43-9.93c.77-.33,1.51-.72,2.27-1.08,1.5-1.45,3.63-1.27,5.39-2a31.13,31.13,0,0,0,3.23-1.17c5-1.25,9.91-3.21,15.2-3.2,2.56,0,4.17,1,4.74,2.93.66,2.21-.73,3.48-2.32,4.54a15.8,15.8,0,0,0-4,3.81,65.84,65.84,0,0,1-7.88,8.47c-6.58,6.25-8.65,14-7.42,22.7a15.92,15.92,0,0,0,4.42,8.91c5.31,5.45,11.5,9,19.48,9.12,13.52.18,24.07-5.53,32.63-15.55,5.88-6.89,11.2-14.23,17.4-20.84,3.7-4,8.21-6.91,12.68-9.88a113.16,113.16,0,0,1,21.19-11c4.58-1.82,9.48-2.11,14.22-3.14a4.16,4.16,0,0,1,5.12,3c.58,2.34-.5,4.34-3.18,5.18a9.48,9.48,0,0,0-5.25,4c-4.52,6.82-8.48,13.87-9.78,22.14-1.7,10.88,4.56,21.67,15,24.93a18.56,18.56,0,0,0,15.91-2.39c6.62-4.21,12.47-9,16.8-15.89a146,146,0,0,1,16.72-21.37c3.79-4.12,8.72-6.48,13.52-9.05,4.11-1.71,8-4,12.42-4.88,5.58-2.12,11.44-3.16,17.23-4.45a8.19,8.19,0,0,1,1-.17c2.15-.26,3.9.33,4.56,2.57s-.58,3.41-2.35,4.45c-11.92,7-19.34,21-17.8,34.2.54,4.62,3.62,8.05,6.54,11.41,4.9,5.64,11.3,8.16,18.61,8.75,3.09.25,6.17.58,9.25,1a3.41,3.41,0,0,1,3.28,3.76c-.08,2-1.3,3.45-3.34,3.38-12-.41-23.92-1.52-32.74-11.25-3.21-3.54-6.24-7.24-7.93-11.84-2.29-6.2-1.54-12.38,0-18.55a40.14,40.14,0,0,1,9.18-17.17c-.39-.08-.58-.2-.71-.14-8.66,3.52-17.85,6.21-24.56,13.2a124.37,124.37,0,0,0-17.62,22.55c-3.33,5.62-8.06,9.6-13.32,13.08-3.08,2-6,4.31-9.61,5.62-10.21,3.72-19.28,1.92-27.47-4.91-10.72-8.94-13-22.89-8.71-35a102.81,102.81,0,0,1,7.58-16.24c-3.22,1.49-6.54,2.81-9.65,4.51-9.45,5.17-18.59,10.78-25.49,19.32-3.74,4.63-7.68,9.11-11.26,13.86a51.47,51.47,0,0,1-18.55,15.46c-10.27,5.09-21.07,6.84-31.94,3C911,486.05,901,476,901.07,462c.07-9.61,3.83-17.11,10.36-23.65,1.6-1.6,3.18-3.23,4.77-4.84C916.38,432.33,915.63,432.92,915.15,433Z" transform="translate(-430 -277.42)"/><path class="cls-2" d="M1108.31,429.7c-1.16,1.31-2.9,1.34-4.37,2-2.61,1.1-5.19,2.25-7.79,3.38-.8-.93-.17-1.72.25-2.52a82.91,82.91,0,0,0,9.06-29.13,94.42,94.42,0,0,0,1.09-16.54c-.56-10.66-1.93-21.12-5.51-31.32a103.69,103.69,0,0,0-19-33.21,90.27,90.27,0,0,0-17.2-15.78,112.13,112.13,0,0,0-19.58-11.28,99.18,99.18,0,0,0-31.11-7.71,106.07,106.07,0,0,0-33.73,2.34,98,98,0,0,0-28.69,11.93,102.68,102.68,0,0,0-29.06,26.76A99.81,99.81,0,0,0,908.82,355c-2.39,6.71-3.48,13.59-4.69,20.52a63,63,0,0,0-1.31,13.45c.51,12.37,2.41,24.49,7,36.07a4.63,4.63,0,0,1,.66,2.64A28,28,0,0,1,902,430.3c-2-4.16-3.16-8.62-4.44-13-2.26-7.76-3.06-15.69-3.6-23.73-.57-8.27.37-16.34,1.54-24.46a96.41,96.41,0,0,1,5.7-20.42,102.34,102.34,0,0,1,10.7-21.1,119,119,0,0,1,19.56-22.24A102.85,102.85,0,0,1,957.4,288.2a107.87,107.87,0,0,1,22.08-7.64,172.43,172.43,0,0,1,18-2.77,94.65,94.65,0,0,1,22.65.79,102.63,102.63,0,0,1,23,5.88,118.17,118.17,0,0,1,20.65,10,115.17,115.17,0,0,1,25.12,21.71,104.48,104.48,0,0,1,16,24.26,103,103,0,0,1,9,27.69c.86,5.48,1.46,10.94,2,16.45a68.63,68.63,0,0,1-.86,18.54c-1.51,8.58-2.66,17.4-6.76,25.35C1108.13,428.79,1108.3,429.28,1108.31,429.7Z" transform="translate(-430 -277.42)"/><text class="cls-3" transform="translate(0 387.33)">Ca<tspan class="cls-4" x="264.97" y="0">r</tspan><tspan x="350.17" y="0">e</tspan><tspan class="cls-5" x="478.22" y="0">O</tspan><tspan class="cls-6" x="645.57" y="0">c</tspan><tspan class="cls-5" x="754.61" y="0">ean</tspan></text></svg>